<svg fill="none" stroke="currentColor" stroke-width="0" aria-hidden="true" color="currentColor" viewBox="0 0 40 40" width="1em">
  <circle cx="20" cy="20" r="7.5" stroke="currentColor"/>
  <circle cx="20" cy="20" r="3" fill="currentColor"/>
  <path fill="currentColor" d="M20 13C19.4477 13 19 12.5523 19 12V10C19 9.44772 19.4477 9 20 9 20.5523 9 21 9.44772 21 10V12C21 12.5523 20.5523 13 20 13ZM20 31C19.4477 31 19 30.5523 19 30V28C19 27.4477 19.4477 27 20 27 20.5523 27 21 27.4477 21 28V30C21 30.5523 20.5523 31 20 31ZM28 21C27.4477 21 27 20.5523 27 20 27 19.4477 27.4477 19 28 19H30C30.5523 19 31 19.4477 31 20 31 20.5523 30.5523 21 30 21H28ZM10 21C9.44772 21 9 20.5523 9 20 9 19.4477 9.44772 19 10 19H12C12.5523 19 13 19.4477 13 20 13 20.5523 12.5523 21 12 21H10Z"/>
</svg>
