<svg fill="none" stroke="currentColor" stroke-width="0" aria-hidden="true" color="currentColor" viewBox="0 0 52 52" width="1em">
  <path fill="currentColor" d="M25.9718 1.22066e-05C25.5872 -0.00206066 25.3763 0.260157 25.3172 0.566942L23.7289 5.92427C19.948 6.34765 16.3648 7.83499 13.3955 10.2136C11.746 9.31808 10.097 8.41845 8.44651 7.52763C8.14076 7.36284 7.87336 7.3758 7.62565 7.62454C7.37793 7.87329 7.44841 8.23967 7.58833 8.50396L10.2328 13.3752C7.84217 16.3484 6.34676 19.9404 5.92121 23.7318C4.1178 24.2666 2.31179 24.7967 0.510972 25.3351C0.179309 25.4346 -0.001032 25.6326 4.44261e-06 25.9839C0.00104089 26.3348 0.309383 26.5446 0.595442 26.6327L5.9181 28.2097C6.33166 32.0092 7.81955 35.6121 10.2074 38.5963C9.30728 40.2556 8.40194 41.9139 7.50594 43.5738C7.34166 43.8795 7.35461 44.1459 7.60336 44.3936C7.85211 44.6413 8.21849 44.5719 8.48279 44.4319L13.3815 41.7735C16.3536 44.1603 19.9429 45.653 23.731 46.0778C24.2658 47.8812 24.7969 49.6877 25.3354 51.489C25.4349 51.8207 25.6328 52.001 25.9842 52C26.335 51.999 26.5449 51.6906 26.633 51.4046L28.21 46.082C32.0181 45.6671 35.6281 44.1714 38.6138 41.7714L43.5327 44.4423C43.8898 44.6237 44.1308 44.6558 44.4044 44.3853C44.6775 44.1153 44.6417 43.78 44.4666 43.5214L41.7889 38.5859C44.1715 35.6045 45.6573 32.0071 46.0731 28.2133L51.4248 26.6276C51.8051 26.5037 51.9984 26.356 52 25.9715C52.0026 25.587 51.7404 25.3761 51.4336 25.317L46.058 23.7235C45.6335 19.9397 44.1443 16.3539 41.7635 13.3825L44.4215 8.48685C44.6029 8.13032 44.635 7.88883 44.3645 7.61521C44.0515 7.34315 43.7887 7.42503 43.5006 7.55355L38.5956 10.2167C35.6142 7.82264 32.011 6.32986 28.21 5.91391L26.6273 0.57627C26.5034 0.19538 26.3563 0.00208508 25.9718 1.22066e-05ZM25.9702 2.71443V22.8907C25.4447 22.8958 24.9291 23.034 24.4715 23.2923L21.2357 19.1922L25.9702 2.71443ZM28.6909 7.53955C31.7447 7.98124 34.6402 9.17763 37.1151 11.0204L30.7467 14.4769L28.6909 7.53955ZM23.2459 7.55562L21.202 14.4505C19.0949 13.3047 16.9873 12.1641 14.8797 11.0194C17.3394 9.19161 20.2136 8.00158 23.2454 7.55562M9.52234 9.52225L19.6629 19.6436L19.6577 19.6591L15.7835 20.8075L9.52234 9.52225ZM32.3241 19.6534L32.2754 19.6399L31.1358 15.7948L42.4434 9.53469L32.3241 19.6534ZM40.9629 14.8563C42.8005 17.3213 43.9966 20.2043 44.4438 23.2462L37.5224 21.1941L40.9629 14.8563ZM11.0376 14.8614L14.476 21.1956L7.54843 23.2488C7.99846 20.2071 9.19746 17.3249 11.0376 14.8614ZM32.7423 21.2179L49.285 25.9705H29.1096C29.1044 25.4393 28.9633 24.9184 28.6997 24.4573L32.7423 21.2179ZM22.8909 25.9705V26C22.891 26.5187 23.0209 27.0291 23.2687 27.4847L19.1753 30.7065L15.1186 29.5446L2.68336 25.9839L22.8909 25.9705ZM44.4609 28.6901C44.0193 31.7412 42.8244 34.6341 40.9841 37.1075L37.5307 30.7438L44.4609 28.6901ZM7.54688 28.6921L14.4677 30.7427C13.3137 32.8653 12.1653 34.9885 11.0122 37.1116C9.17568 34.6365 7.9847 31.7429 7.54688 28.6921ZM27.5 28.7227L30.7238 32.7596L29.5516 36.852L25.9832 49.3167L25.9697 29.1083C26.5174 29.1093 27.0854 28.9663 27.5 28.7227ZM36.2118 31.1345L42.4844 42.4653L32.3101 32.2912L36.2118 31.1345ZM19.6531 32.3248L20.8087 36.2229L9.50006 42.4969L19.6531 32.3248ZM30.7513 37.5029L37.1348 40.9697C34.6545 42.816 31.7521 44.0131 28.6914 44.4522L30.7513 37.5029ZM21.1963 37.5303C21.8788 39.8385 22.5655 42.143 23.2485 44.4506C20.2099 44.0007 17.3305 42.8034 14.8688 40.9661L21.1963 37.5303Z"/>
</svg>
