<svg fill="none" stroke="currentColor" stroke-width="0" aria-hidden="true" color="currentColor" viewBox="0 0 40 40" width="1em">
  <path fill="currentColor" fill-rule="evenodd" d="M12 28.0003H28C31.3137 28.0003 34 25.314 34 22.0003V18H36C38.2091 18 40 19.7909 40 22V34.0002C40 36.2093 38.2091 38.0002 36 38.0002H16C13.7909 38.0002 12 36.2093 12 34.0002V28.0003Z" clip-rule="evenodd" opacity="0.56"/>
  <path fill="currentColor" d="M12 21.9998C12 19.7907 13.7909 17.9998 16 17.9998H32V9.52772C30.9385 8.57763 29.5367 7.99993 28 7.99993H8C4.68629 7.99993 2 10.6862 2 13.9999V22.0001C2 23.7373 2.73831 25.3021 3.91827 26.3978C4.45547 26.1386 5.04904 26.0002 5.65686 26.0002H12V21.9998Z"/>
  <path fill="currentColor" d="M16 17.9998C13.7909 17.9998 12 19.7907 12 21.9998V26.0002H28C30.2091 26.0002 32 24.2094 32 22.0002V17.9998H16Z"/>
  <path fill="currentColor" d="M2 13.9999C2 10.6862 4.68629 7.99993 8 7.99993H28C29.5367 7.99993 30.9385 8.57763 32 9.52772V6C32 3.79086 30.2091 2 28 2H4C1.79086 2 0 3.79086 0 6V27.586C0 28.4769 1.07715 28.9231 1.70711 28.2931L2.82842 27.1718C3.14877 26.8514 3.51787 26.591 3.91827 26.3978C2.73831 25.3021 2 23.7373 2 22.0001V13.9999Z"/>
</svg>
